<svg width="154" height="154" viewBox="0 0 154 154" fill="none" xmlns="http://www.w3.org/2000/svg">
<rect width="154" height="154" fill="white"/>
<path d="M33.6875 68.375V86.625C33.6875 87.23 33.1805 87.8103 32.278 88.2381C31.3754 88.6659 30.1514 88.9062 28.875 88.9062C27.5986 88.9062 26.3746 88.6659 25.472 88.2381C24.5695 87.8103 24.0625 87.23 24.0625 86.625V68.375C24.0625 67.77 24.5695 67.1897 25.472 66.7619C26.3746 66.3341 27.5986 66.0938 28.875 66.0938C30.1514 66.0938 31.3754 66.3341 32.278 66.7619C33.1805 67.1897 33.6875 67.77 33.6875 68.375ZM52.9375 47.8438C51.6611 47.8438 50.4371 48.0841 49.5345 48.5119C48.632 48.9397 48.125 49.52 48.125 50.125V104.875C48.125 105.48 48.632 106.06 49.5345 106.488C50.4371 106.916 51.6611 107.156 52.9375 107.156C54.2139 107.156 55.4379 106.916 56.3405 106.488C57.243 106.06 57.75 105.48 57.75 104.875V50.125C57.75 49.52 57.243 48.9397 56.3405 48.5119C55.4379 48.0841 54.2139 47.8438 52.9375 47.8438ZM77 56.9688C75.7236 56.9688 74.4996 57.2091 73.597 57.6369C72.6945 58.0647 72.1875 58.645 72.1875 59.25V95.75C72.1875 96.355 72.6945 96.9353 73.597 97.3631C74.4996 97.7909 75.7236 98.0312 77 98.0312C78.2764 98.0312 79.5004 97.7909 80.403 97.3631C81.3055 96.9353 81.8125 96.355 81.8125 95.75V59.25C81.8125 58.645 81.3055 58.0647 80.403 57.6369C79.5004 57.2091 78.2764 56.9688 77 56.9688ZM101.062 66.0938C99.7861 66.0938 98.5621 66.3341 97.6595 66.7619C96.757 67.1897 96.25 67.77 96.25 68.375V86.625C96.25 87.23 96.757 87.8103 97.6595 88.2381C98.5621 88.6659 99.7861 88.9062 101.062 88.9062C102.339 88.9062 103.563 88.6659 104.465 88.2381C105.368 87.8103 105.875 87.23 105.875 86.625V68.375C105.875 67.77 105.368 67.1897 104.465 66.7619C103.563 66.3341 102.339 66.0938 101.062 66.0938ZM125.125 61.5312C123.849 61.5312 122.625 61.7716 121.722 62.1994C120.82 62.6272 120.312 63.2075 120.312 63.8125V91.1875C120.312 91.7925 120.82 92.3728 121.722 92.8006C122.625 93.2284 123.849 93.4688 125.125 93.4688C126.401 93.4688 127.625 93.2284 128.528 92.8006C129.43 92.3728 129.938 91.7925 129.938 91.1875V63.8125C129.938 63.2075 129.43 62.6272 128.528 62.1994C127.625 61.7716 126.401 61.5312 125.125 61.5312Z" fill="#777777"/>
</svg>
