<svg width="475" height="88" viewBox="0 0 475 88" fill="none" xmlns="http://www.w3.org/2000/svg">
<path d="M142.88 58V27.16H153.86V35.68L152.78 34.72C153.5 32.64 154.54 31 155.9 29.8C157.26 28.56 158.78 27.68 160.46 27.16C162.14 26.6 163.8 26.32 165.44 26.32C167.36 26.32 169.12 26.62 170.72 27.22C172.32 27.78 173.66 28.7 174.74 29.98C175.82 31.26 176.54 32.9 176.9 34.9L175.34 34.72C175.9 32.72 176.86 31.1 178.22 29.86C179.58 28.62 181.16 27.72 182.96 27.16C184.76 26.6 186.56 26.32 188.36 26.32C191 26.32 193.24 26.9 195.08 28.06C196.92 29.18 198.32 30.78 199.28 32.86C200.28 34.9 200.78 37.36 200.78 40.24V58H189.8V41.8C189.8 40.08 189.56 38.68 189.08 37.6C188.64 36.52 188 35.74 187.16 35.26C186.32 34.74 185.32 34.48 184.16 34.48C182.88 34.48 181.72 34.78 180.68 35.38C179.64 35.98 178.82 36.86 178.22 38.02C177.62 39.18 177.32 40.62 177.32 42.34V58H166.34V41.8C166.34 39.2 165.82 37.34 164.78 36.22C163.74 35.06 162.38 34.48 160.7 34.48C159.38 34.48 158.2 34.78 157.16 35.38C156.16 35.98 155.36 36.86 154.76 38.02C154.16 39.18 153.86 40.62 153.86 42.34V58H142.88ZM223.924 58.84C219.524 58.84 215.764 58.16 212.644 56.8C209.524 55.44 207.144 53.54 205.504 51.1C203.864 48.66 203.044 45.82 203.044 42.58C203.044 40.62 203.344 38.82 203.944 37.18C204.544 35.5 205.424 34 206.584 32.68C207.744 31.32 209.164 30.18 210.844 29.26C212.524 28.3 214.444 27.58 216.604 27.1C218.804 26.58 221.244 26.32 223.924 26.32C228.364 26.32 232.124 27 235.204 28.36C238.324 29.72 240.704 31.62 242.344 34.06C243.984 36.5 244.804 39.34 244.804 42.58C244.804 44.5 244.504 46.3 243.904 47.98C243.304 49.66 242.424 51.18 241.264 52.54C240.144 53.86 238.724 55 237.004 55.96C235.324 56.88 233.384 57.58 231.184 58.06C228.984 58.58 226.564 58.84 223.924 58.84ZM223.924 51.1C225.244 51.1 226.424 50.96 227.464 50.68C228.504 50.4 229.404 50 230.164 49.48C230.924 48.92 231.544 48.28 232.024 47.56C232.544 46.84 232.924 46.06 233.164 45.22C233.404 44.38 233.524 43.5 233.524 42.58C233.524 41.02 233.184 39.6 232.504 38.32C231.824 37.04 230.764 36.02 229.324 35.26C227.924 34.46 226.124 34.06 223.924 34.06C222.604 34.06 221.424 34.2 220.384 34.48C219.344 34.76 218.444 35.18 217.684 35.74C216.924 36.26 216.284 36.88 215.764 37.6C215.244 38.28 214.864 39.06 214.624 39.94C214.384 40.78 214.264 41.66 214.264 42.58C214.264 44.1 214.604 45.52 215.284 46.84C216.004 48.12 217.064 49.16 218.464 49.96C219.904 50.72 221.724 51.1 223.924 51.1ZM262.983 58.84C260.063 58.84 257.323 58.24 254.763 57.04C252.243 55.8 250.203 53.98 248.643 51.58C247.083 49.14 246.303 46.12 246.303 42.52C246.303 40.36 246.583 38.42 247.143 36.7C247.743 34.94 248.563 33.42 249.603 32.14C250.683 30.82 251.923 29.74 253.323 28.9C254.723 28.06 256.243 27.42 257.883 26.98C259.523 26.54 261.223 26.32 262.983 26.32C265.463 26.32 267.683 26.62 269.643 27.22C271.603 27.78 273.263 28.56 274.623 29.56C276.023 30.56 277.103 31.68 277.863 32.92L276.903 34.96V15.16H287.883V58H276.903V50.2L277.863 52.24C276.983 53.64 275.783 54.84 274.263 55.84C272.783 56.84 271.083 57.58 269.163 58.06C267.243 58.58 265.183 58.84 262.983 58.84ZM267.183 51.1C268.423 51.1 269.563 50.96 270.603 50.68C271.643 50.4 272.563 50 273.363 49.48C274.163 48.92 274.823 48.3 275.343 47.62C275.863 46.9 276.263 46.12 276.543 45.28C276.823 44.4 276.963 43.5 276.963 42.58C276.963 40.98 276.583 39.54 275.823 38.26C275.063 36.98 273.943 35.96 272.463 35.2C271.023 34.44 269.263 34.06 267.183 34.06C265.943 34.06 264.803 34.2 263.763 34.48C262.763 34.76 261.863 35.18 261.063 35.74C260.303 36.26 259.643 36.88 259.083 37.6C258.563 38.28 258.163 39.04 257.883 39.88C257.643 40.72 257.523 41.62 257.523 42.58C257.523 44.1 257.883 45.52 258.603 46.84C259.363 48.12 260.463 49.16 261.903 49.96C263.343 50.72 265.103 51.1 267.183 51.1ZM305.436 58.84C303.116 58.84 301.076 58.52 299.316 57.88C297.596 57.2 296.136 56.24 294.936 55C293.776 53.72 292.896 52.18 292.296 50.38C291.696 48.54 291.396 46.46 291.396 44.14V27.16H302.376V41.92C302.376 43.72 302.656 45.28 303.216 46.6C303.776 47.92 304.636 48.94 305.796 49.66C306.956 50.34 308.416 50.68 310.176 50.68C312.096 50.68 313.716 50.3 315.036 49.54C316.396 48.78 317.416 47.74 318.096 46.42C318.816 45.1 319.176 43.54 319.176 41.74V27.16H330.156V58H319.176V49.36L320.196 51.1C318.996 53.5 317.136 55.4 314.616 56.8C312.096 58.16 309.036 58.84 305.436 58.84ZM334.018 58V15.16H344.998V58H334.018ZM360.498 58.84C356.498 58.84 353.358 58.02 351.078 56.38C348.838 54.74 347.718 52.48 347.718 49.6C347.718 47.76 348.198 46.18 349.158 44.86C350.118 43.54 351.558 42.46 353.478 41.62C355.398 40.78 357.818 40.24 360.738 40L372.138 38.8C373.058 38.72 373.738 38.5 374.178 38.14C374.658 37.74 374.898 37.24 374.898 36.64V36.58C374.898 35.86 374.598 35.26 373.998 34.78C373.398 34.26 372.558 33.88 371.478 33.64C370.438 33.36 369.178 33.22 367.698 33.22C365.458 33.22 363.698 33.48 362.418 34C361.138 34.48 360.358 35.22 360.078 36.22H349.158C349.558 34.06 350.538 32.26 352.098 30.82C353.658 29.34 355.758 28.22 358.398 27.46C361.078 26.7 364.258 26.32 367.938 26.32C371.978 26.32 375.318 26.76 377.958 27.64C380.598 28.48 382.578 29.78 383.898 31.54C385.218 33.3 385.878 35.52 385.878 38.2V58H375.438V49L376.578 50.38C375.658 52.26 374.458 53.82 372.978 55.06C371.498 56.3 369.718 57.24 367.638 57.88C365.598 58.52 363.218 58.84 360.498 58.84ZM364.458 51.64C365.938 51.64 367.298 51.46 368.538 51.1C369.818 50.7 370.938 50.18 371.898 49.54C372.858 48.86 373.598 48.08 374.118 47.2C374.638 46.32 374.898 45.38 374.898 44.38V40.36L376.638 42.88C376.038 43.24 375.238 43.56 374.238 43.84C373.238 44.12 371.938 44.36 370.338 44.56L362.538 45.52C361.338 45.68 360.438 46 359.838 46.48C359.278 46.92 358.998 47.56 358.998 48.4C358.998 49.4 359.458 50.2 360.378 50.8C361.338 51.36 362.698 51.64 364.458 51.64ZM404.498 58C401.218 58 398.618 57.12 396.698 55.36C394.778 53.6 393.818 51.14 393.818 47.98V18.82H404.798V46.18C404.798 47.66 405.178 48.8 405.938 49.6C406.738 50.4 407.898 50.8 409.418 50.8H415.478V58H404.498ZM386.678 34.24V27.16H394.778V34.24H386.678ZM403.838 34.24V27.16H415.478V34.24H403.838ZM437.064 58.84C432.704 58.84 428.984 58.16 425.904 56.8C422.824 55.44 420.464 53.54 418.824 51.1C417.224 48.62 416.424 45.78 416.424 42.58C416.424 40.62 416.704 38.82 417.264 37.18C417.864 35.5 418.724 34 419.844 32.68C421.004 31.32 422.424 30.18 424.104 29.26C425.784 28.3 427.704 27.58 429.864 27.1C432.024 26.58 434.404 26.32 437.004 26.32C440.204 26.32 443.044 26.68 445.524 27.4C448.044 28.12 450.164 29.26 451.884 30.82C453.604 32.34 454.904 34.26 455.784 36.58C456.664 38.9 457.084 41.66 457.044 44.86H423.444V39.34H445.944C445.744 38.38 445.384 37.54 444.864 36.82C444.384 36.1 443.744 35.5 442.944 35.02C442.184 34.5 441.304 34.12 440.304 33.88C439.304 33.64 438.184 33.52 436.944 33.52C435.664 33.52 434.484 33.68 433.404 34C432.364 34.28 431.444 34.68 430.644 35.2C429.844 35.72 429.184 36.36 428.664 37.12C428.184 37.84 427.804 38.66 427.524 39.58C427.244 40.5 427.104 41.5 427.104 42.58C427.104 44.34 427.464 45.9 428.184 47.26C428.944 48.62 430.064 49.7 431.544 50.5C433.064 51.26 434.924 51.64 437.124 51.64C439.044 51.64 440.684 51.42 442.044 50.98C443.444 50.5 444.504 49.8 445.224 48.88H456.624C456.144 50.68 455.164 52.34 453.684 53.86C452.204 55.38 450.104 56.6 447.384 57.52C444.704 58.4 441.264 58.84 437.064 58.84Z" fill="black"/>
<path d="M33.6875 33.375V51.625C33.6875 52.23 33.1805 52.8103 32.278 53.2381C31.3754 53.6659 30.1514 53.9062 28.875 53.9062C27.5986 53.9062 26.3746 53.6659 25.472 53.2381C24.5695 52.8103 24.0625 52.23 24.0625 51.625V33.375C24.0625 32.77 24.5695 32.1897 25.472 31.7619C26.3746 31.3341 27.5986 31.0938 28.875 31.0938C30.1514 31.0938 31.3754 31.3341 32.278 31.7619C33.1805 32.1897 33.6875 32.77 33.6875 33.375ZM52.9375 12.8438C51.6611 12.8438 50.4371 13.0841 49.5345 13.5119C48.632 13.9397 48.125 14.52 48.125 15.125V69.875C48.125 70.48 48.632 71.0603 49.5345 71.4881C50.4371 71.9159 51.6611 72.1562 52.9375 72.1562C54.2139 72.1562 55.4379 71.9159 56.3405 71.4881C57.243 71.0603 57.75 70.48 57.75 69.875V15.125C57.75 14.52 57.243 13.9397 56.3405 13.5119C55.4379 13.0841 54.2139 12.8438 52.9375 12.8438ZM77 21.9688C75.7236 21.9688 74.4996 22.2091 73.597 22.6369C72.6945 23.0647 72.1875 23.645 72.1875 24.25V60.75C72.1875 61.355 72.6945 61.9353 73.597 62.3631C74.4996 62.7909 75.7236 63.0312 77 63.0312C78.2764 63.0312 79.5004 62.7909 80.403 62.3631C81.3055 61.9353 81.8125 61.355 81.8125 60.75V24.25C81.8125 23.645 81.3055 23.0647 80.403 22.6369C79.5004 22.2091 78.2764 21.9688 77 21.9688ZM101.062 31.0938C99.7861 31.0938 98.5621 31.3341 97.6595 31.7619C96.757 32.1897 96.25 32.77 96.25 33.375V51.625C96.25 52.23 96.757 52.8103 97.6595 53.2381C98.5621 53.6659 99.7861 53.9062 101.062 53.9062C102.339 53.9062 103.563 53.6659 104.465 53.2381C105.368 52.8103 105.875 52.23 105.875 51.625V33.375C105.875 32.77 105.368 32.1897 104.465 31.7619C103.563 31.3341 102.339 31.0938 101.062 31.0938ZM125.125 26.5312C123.849 26.5312 122.625 26.7716 121.722 27.1994C120.82 27.6272 120.312 28.2075 120.312 28.8125V56.1875C120.312 56.7925 120.82 57.3728 121.722 57.8006C122.625 58.2284 123.849 58.4688 125.125 58.4688C126.401 58.4688 127.625 58.2284 128.528 57.8006C129.43 57.3728 129.938 56.7925 129.938 56.1875V28.8125C129.938 28.2075 129.43 27.6272 128.528 27.1994C127.625 26.7716 126.401 26.5312 125.125 26.5312Z" fill="#777777"/>
</svg>
